<svg width="86" height="115" viewBox="0 0 86 115" fill="none" xmlns="http://www.w3.org/2000/svg">
<path d="M23.8398 0.150391V8.46484C23.8398 9.99414 23.4941 11.1631 22.8027 11.9717C22.1113 12.7744 21.1123 13.1758 19.8057 13.1758C18.5283 13.1758 17.5557 12.7773 16.8877 11.9805C16.2197 11.1777 15.8857 9.99414 15.8857 8.42969V0.150391H18.2588V8.60547C18.2588 10.2402 18.8008 11.0576 19.8848 11.0576C20.3887 11.0576 20.7783 10.8496 21.0537 10.4336C21.3291 10.0176 21.4668 9.42578 21.4668 8.6582V0.150391H23.8398ZM33.0684 4.10547C33.0684 5.4707 32.7227 6.51953 32.0312 7.25195C31.3457 7.97852 30.3525 8.3418 29.0518 8.3418H28.4541V13H26.0635V0.150391H29.3242C31.8203 0.150391 33.0684 1.46875 33.0684 4.10547ZM28.4541 6.26758H28.9111C29.4971 6.26758 29.9336 6.10645 30.2207 5.78418C30.5078 5.46191 30.6514 4.93457 30.6514 4.20215C30.6514 3.52832 30.5195 3.03027 30.2559 2.70801C29.9922 2.37988 29.585 2.21582 29.0342 2.21582H28.4541V6.26758ZM34.6943 13V0.150391H37.085V10.9082H40.3984V13H34.6943ZM50.7783 6.55762C50.7783 8.68457 50.3799 10.3193 49.583 11.4619C48.7861 12.6045 47.6465 13.1758 46.1641 13.1758C44.6758 13.1758 43.5332 12.6074 42.7363 11.4707C41.9395 10.3281 41.541 8.68457 41.541 6.54004C41.541 4.41309 41.9395 2.78418 42.7363 1.65332C43.5332 0.516602 44.6816 -0.0517578 46.1816 -0.0517578C47.6641 -0.0517578 48.8008 0.519531 49.5918 1.66211C50.3828 2.79883 50.7783 4.43066 50.7783 6.55762ZM43.9844 6.55762C43.9844 8.02246 44.1689 9.13867 44.5381 9.90625C44.9072 10.6738 45.4492 11.0576 46.1641 11.0576C47.6055 11.0576 48.3262 9.55762 48.3262 6.55762C48.3262 3.55762 47.6113 2.05762 46.1816 2.05762C45.4551 2.05762 44.9072 2.44141 44.5381 3.20898C44.1689 3.9707 43.9844 5.08691 43.9844 6.55762ZM58.7412 13L58.0029 9.75684H54.6543L53.916 13H51.5254L54.707 0.0976562H57.9502L61.1406 13H58.7412ZM57.5547 7.63867L56.8691 4.65039C56.8281 4.46875 56.7344 4.01465 56.5879 3.28809C56.4473 2.55566 56.3623 2.06641 56.333 1.82031C56.2568 2.32422 56.1602 2.88086 56.043 3.49023C55.9258 4.09375 55.6211 5.47656 55.1289 7.63867H57.5547ZM70.4482 6.45215C70.4482 8.57324 70.0146 10.1963 69.1475 11.3213C68.2861 12.4404 67.0439 13 65.4209 13H62.2744V0.150391H65.7109C67.2051 0.150391 68.3682 0.704102 69.2002 1.81152C70.0322 2.91309 70.4482 4.45996 70.4482 6.45215ZM67.9961 6.52246C67.9961 3.65137 67.2051 2.21582 65.623 2.21582H64.665V10.9082H65.4385C66.3115 10.9082 66.9561 10.5449 67.3721 9.81836C67.7881 9.08594 67.9961 7.9873 67.9961 6.52246Z" fill="white"/>
<path d="M66 28.188H20C8.9543 28.188 0 37.1424 0 48.188V94.188C0 105.234 8.9543 114.188 20 114.188H66C77.0457 114.188 86 105.234 86 94.188V48.188C86 37.1424 77.0457 28.188 66 28.188Z" fill="white"/>
<path d="M42 96.1881C55.2548 96.1881 66 85.4429 66 72.1881C66 58.9332 55.2548 48.188 42 48.188C28.7452 48.188 18 58.9332 18 72.1881C18 85.4429 28.7452 96.1881 42 96.1881Z" fill="#943106"/>
<path d="M41.922 91.688C52.7346 91.688 61.5 82.9227 61.5 72.11C61.5 61.2974 52.7346 52.532 41.922 52.532C31.1094 52.532 22.344 61.2974 22.344 72.11C22.344 82.9227 31.1094 91.688 41.922 91.688Z" fill="white"/>
</svg>
